<svg xmlns="http://www.w3.org/2000/svg" viewBox="0 0 64 64">
  <defs>
    <linearGradient id="lokiForge" x1="0%" y1="0%" x2="100%" y2="100%">
      <stop offset="0%" stop-color="#fb923c" />
      <stop offset="100%" stop-color="#f97316" />
    </linearGradient>
  </defs>
  <rect width="64" height="64" rx="14" fill="#0b1d2b" />
  <path
    d="M32 10 14 17v15c0 12 7.8 19.6 18 22 10.2-2.4 18-10 18-22V17L32 10Zm0 8.5 10.5 4v9.3c0 7.8-4.9 13.1-10.5 15-5.6-1.9-10.5-7.2-10.5-15v-9.3L32 18.5Z"
    fill="url(#lokiForge)"
  />
  <path d="M32 24c-3.6 0-6.5 2.9-6.5 6.5S28.4 37 32 37s6.5-2.9 6.5-6.5S35.6 24 32 24Z" fill="#0b1d2b" />
</svg>
